<?xml version="1.0" encoding="iso-8859-1"?>
<!-- Generator: Adobe Illustrator 25.2.3, SVG Export Plug-In . SVG Version: 6.00 Build 0)  -->
<svg version="1.1" baseProfile="basic" id="Layer_1"
	 xmlns="http://www.w3.org/2000/svg" xmlns:xlink="http://www.w3.org/1999/xlink" x="0px" y="0px" viewBox="0 0 64 64"
	 xml:space="preserve">
<path style="fill:#3adfba;" d="M34.035,43.736c-0.575,0-1.126-0.248-1.507-0.685L21.764,30.715
	c-0.727-0.832-0.641-2.096,0.191-2.822c0.834-0.727,2.097-0.639,2.822,0.192l9.021,10.337l14.523-22.445
	c0.601-0.927,1.838-1.193,2.766-0.593c0.927,0.6,1.192,1.838,0.592,2.766L35.714,42.823c-0.341,0.527-0.909,0.864-1.536,0.909
	C34.13,43.735,34.083,43.736,34.035,43.736z"/>
<path style="fill:#3adfba;" d="M52.09,23.04C53.32,25.77,54,28.81,54,32c0,12.15-9.85,22-22,22s-22-9.85-22-22
	c0-12.15,9.85-22,22-22c5.13,0,9.84,1.75,13.58,4.69l-2.18,3.38C40.3,15.53,36.33,14,32,14c-9.94,0-18,8.06-18,18s8.06,18,18,18
	s18-8.06,18-18c0-1.64-0.22-3.23-0.64-4.74L52.09,23.04z"/>
</svg>